<svg width="104" height="76" viewBox="0 0 104 76" fill="none" xmlns="http://www.w3.org/2000/svg">
<rect width="104" height="76" rx="16" fill="#DCECEF"/>
<circle cx="45" cy="29" r="11" fill="#A9BE8A"/>
<path d="M55.2667 70.5C53.8 52.5 56.7334 33.75 62.6 14.25" stroke="#A9BE8A" stroke-width="7" stroke-linecap="round"/>
<path d="M57.4667 57C45 58.5 35.4667 52.5 31.8 42.75C43.5334 40.5 54.5334 45 60.4 53.25" fill="#A9BE8A"/>
<path d="M60.4 45.75C70.6667 45.75 78.7334 40.5 83.1334 32.25C72.8667 30 64.0667 34.5 58.9333 42" fill="#A9BE8A"/>
<path d="M60.4 33C49.4 33.75 41.3334 28.5 38.4 20.25C48.6667 18 57.4667 21.75 63.3334 29.25" fill="#F28A5C"/>
<path d="M65.5333 18.75C69.5834 18.75 72.8666 15.3921 72.8666 11.25C72.8666 7.10786 69.5834 3.75 65.5333 3.75C61.4832 3.75 58.2 7.10786 58.2 11.25C58.2 15.3921 61.4832 18.75 65.5333 18.75Z" fill="#F28A5C"/>
<path d="M74.3333 24.75C77.5734 24.75 80.2 22.0637 80.2 18.75C80.2 15.4363 77.5734 12.75 74.3333 12.75C71.0933 12.75 68.4667 15.4363 68.4667 18.75C68.4667 22.0637 71.0933 24.75 74.3333 24.75Z" fill="#F28A5C"/>
<path d="M59.6667 27.75C62.5017 27.75 64.8 25.3995 64.8 22.5C64.8 19.6005 62.5017 17.25 59.6667 17.25C56.8316 17.25 54.5333 19.6005 54.5333 22.5C54.5333 25.3995 56.8316 27.75 59.6667 27.75Z" fill="#FCE3D6"/>
</svg>
